<svg xmlns="http://www.w3.org/2000/svg" viewBox="0 0 2290.53 704.75"><defs><style>.cls-1,.cls-2{fill:#0366d6;}.cls-2{font-size:470px;font-family:Arial-BoldMT, Arial;font-weight:700;}.cls-3{letter-spacing:-0.02em;}</style></defs><title>ULIS</title><g id="Calque_2" data-name="Calque 2"><path class="cls-1" d="M374.55,466.16" transform="translate(-130.68 -146.43)"/><text class="cls-2" transform="translate(493 403.22)"><tspan class="cls-3">L</tspan><tspan x="278.6" y="0" xml:space="preserve"> I S</tspan></text></g><g id="Calque_5" data-name="Calque 5"><path class="cls-1" d="M363,310.44V422.76c0,49.44-48.9,90.12-91.12,90.12-20.17,0-50.24.12-89.36-49.8,34.08,76.2,99.12,97.48,144.72,97.48C407.64,560.56,484,496.2,484,419.4c0,0,5.28-191,39.84-223.25C456,196.15,363,225.48,363,310.44Z" transform="translate(-130.68 -146.43)"/><path class="cls-1" d="M284.42,447.6V409.84s.95-71.66-1.66-106.85c-4-53.39-90.24-104.71-152.08-104.71,22.95,17.84,33,132.87,35,188,1.92,52.32,59.9,101.36,97.88,101.36,21.12,0,34.2-1.48,51.12-15.52C305.27,473.47,284.42,474.78,284.42,447.6Z" transform="translate(-130.68 -146.43)"/></g></svg>